<mxfile host="app.diagrams.net" agent="Mozilla/5.0 (Windows NT 10.0; Win64; x64) AppleWebKit/537.36 (KHTML, like Gecko) Chrome/138.0.0.0 Safari/537.36" version="28.0.1">
  <diagram name="Page-1" id="90a13364-a465-7bf4-72fc-28e22215d7a0">
    <mxGraphModel dx="1185" dy="563" grid="1" gridSize="10" guides="1" tooltips="1" connect="1" arrows="1" fold="1" page="1" pageScale="1.5" pageWidth="1169" pageHeight="826" background="none" math="0" shadow="0">
      <root>
        <mxCell id="0" style=";html=1;" />
        <mxCell id="1" style=";html=1;" parent="0" />
        <mxCell id="YoKq40f7h98XqhHqaOgo-1" value="&lt;font style=&quot;font-size: 16px;&quot; face=&quot;標楷體&quot;&gt;教師需求訪談&lt;/font&gt;" style="whiteSpace=wrap;html=1;shadow=1;fontSize=18;" parent="1" vertex="1">
          <mxGeometry x="320" y="90" width="430" height="30" as="geometry" />
        </mxCell>
        <mxCell id="YoKq40f7h98XqhHqaOgo-2" value="&lt;font style=&quot;font-size: 16px;&quot; face=&quot;標楷體&quot;&gt;前測、問卷設計&lt;/font&gt;" style="whiteSpace=wrap;html=1;shadow=1;fontSize=18;" parent="1" vertex="1">
          <mxGeometry x="320" y="145" width="430" height="30" as="geometry" />
        </mxCell>
        <mxCell id="YoKq40f7h98XqhHqaOgo-3" value="&lt;font style=&quot;font-size: 16px;&quot; face=&quot;標楷體&quot;&gt;系統設計&lt;/font&gt;" style="whiteSpace=wrap;html=1;shadow=1;fontSize=18;" parent="1" vertex="1">
          <mxGeometry x="320" y="200" width="430" height="30" as="geometry" />
        </mxCell>
        <mxCell id="YoKq40f7h98XqhHqaOgo-4" value="&lt;font face=&quot;標楷體&quot; style=&quot;font-size: 16px;&quot;&gt;實驗組&lt;/font&gt;" style="rounded=1;whiteSpace=wrap;html=1;arcSize=50;" parent="1" vertex="1">
          <mxGeometry x="320" y="255" width="210" height="30" as="geometry" />
        </mxCell>
        <mxCell id="YoKq40f7h98XqhHqaOgo-5" value="&lt;span style=&quot;font-family: 標楷體; font-size: 16px;&quot;&gt;對照組&lt;/span&gt;" style="rounded=1;whiteSpace=wrap;html=1;arcSize=50;" parent="1" vertex="1">
          <mxGeometry x="541" y="255" width="209" height="30" as="geometry" />
        </mxCell>
        <mxCell id="YoKq40f7h98XqhHqaOgo-6" value="&lt;font face=&quot;標楷體&quot;&gt;&lt;span style=&quot;font-size: 16px;&quot;&gt;前測、問卷&lt;/span&gt;&lt;/font&gt;" style="whiteSpace=wrap;html=1;shadow=1;fontSize=18;" parent="1" vertex="1">
          <mxGeometry x="320" y="310" width="210" height="30" as="geometry" />
        </mxCell>
        <mxCell id="YoKq40f7h98XqhHqaOgo-7" value="&lt;font face=&quot;標楷體&quot;&gt;&lt;span style=&quot;font-size: 16px;&quot;&gt;前測、問卷&lt;/span&gt;&lt;/font&gt;" style="whiteSpace=wrap;html=1;shadow=1;fontSize=18;" parent="1" vertex="1">
          <mxGeometry x="541" y="310" width="209" height="80" as="geometry" />
        </mxCell>
        <mxCell id="YoKq40f7h98XqhHqaOgo-8" value="&lt;font face=&quot;標楷體&quot;&gt;&lt;span style=&quot;font-size: 16px;&quot;&gt;系統導入、實驗流程介紹&lt;/span&gt;&lt;/font&gt;" style="whiteSpace=wrap;html=1;shadow=1;fontSize=18;" parent="1" vertex="1">
          <mxGeometry x="320" y="360" width="210" height="30" as="geometry" />
        </mxCell>
        <mxCell id="YoKq40f7h98XqhHqaOgo-9" value="&lt;span style=&quot;font-family: 標楷體; font-size: 16px;&quot;&gt;老師上課20分鐘&lt;/span&gt;" style="whiteSpace=wrap;html=1;shadow=1;fontSize=18;" parent="1" vertex="1">
          <mxGeometry x="320" y="412" width="210" height="50" as="geometry" />
        </mxCell>
        <mxCell id="YoKq40f7h98XqhHqaOgo-10" value="&lt;span style=&quot;font-size: 16px;&quot;&gt;&lt;font face=&quot;標楷體&quot;&gt;老師上課20分鐘&lt;/font&gt;&lt;br&gt;&lt;/span&gt;" style="whiteSpace=wrap;html=1;shadow=1;fontSize=18;" parent="1" vertex="1">
          <mxGeometry x="541" y="412" width="209" height="50" as="geometry" />
        </mxCell>
        <mxCell id="YoKq40f7h98XqhHqaOgo-11" value="&lt;font face=&quot;標楷體&quot;&gt;&lt;span style=&quot;font-size: 16px;&quot;&gt;後測、問卷、訪談&lt;/span&gt;&lt;/font&gt;" style="whiteSpace=wrap;html=1;shadow=1;fontSize=18;" parent="1" vertex="1">
          <mxGeometry x="321" y="554" width="429" height="30" as="geometry" />
        </mxCell>
        <mxCell id="YoKq40f7h98XqhHqaOgo-12" value="&lt;font face=&quot;標楷體&quot;&gt;&lt;span style=&quot;font-size: 16px;&quot;&gt;數據統整&lt;/span&gt;&lt;/font&gt;" style="whiteSpace=wrap;html=1;shadow=1;fontSize=18;" parent="1" vertex="1">
          <mxGeometry x="320" y="602" width="430" height="30" as="geometry" />
        </mxCell>
        <mxCell id="YoKq40f7h98XqhHqaOgo-13" value="&lt;font face=&quot;標楷體&quot;&gt;&lt;span style=&quot;font-size: 16px;&quot;&gt;資料分析&lt;/span&gt;&lt;/font&gt;" style="whiteSpace=wrap;html=1;shadow=1;fontSize=18;" parent="1" vertex="1">
          <mxGeometry x="320" y="651" width="430" height="30" as="geometry" />
        </mxCell>
        <mxCell id="YoKq40f7h98XqhHqaOgo-14" value="" style="shape=curlyBracket;whiteSpace=wrap;html=1;rounded=1;labelPosition=left;verticalLabelPosition=middle;align=right;verticalAlign=middle;" parent="1" vertex="1">
          <mxGeometry x="288" y="606" width="20" height="65" as="geometry" />
        </mxCell>
        <mxCell id="YoKq40f7h98XqhHqaOgo-15" value="" style="shape=curlyBracket;whiteSpace=wrap;html=1;rounded=1;labelPosition=left;verticalLabelPosition=middle;align=right;verticalAlign=middle;" parent="1" vertex="1">
          <mxGeometry x="288" y="100" width="20" height="120" as="geometry" />
        </mxCell>
        <mxCell id="YoKq40f7h98XqhHqaOgo-18" value="&lt;font style=&quot;font-size: 14px;&quot; face=&quot;標楷體&quot;&gt;第&lt;/font&gt;&lt;div&gt;&lt;font style=&quot;font-size: 14px;&quot; face=&quot;標楷體&quot;&gt;一&lt;/font&gt;&lt;/div&gt;&lt;div&gt;&lt;span style=&quot;font-family: 標楷體; background-color: transparent; color: light-dark(rgb(0, 0, 0), rgb(255, 255, 255));&quot;&gt;&lt;font style=&quot;font-size: 14px;&quot;&gt;週&lt;/font&gt;&lt;/span&gt;&lt;/div&gt;" style="text;html=1;align=center;verticalAlign=middle;whiteSpace=wrap;rounded=0;fontFamily=Comic Sans MS;" parent="1" vertex="1">
          <mxGeometry x="248" y="305" width="40" height="90" as="geometry" />
        </mxCell>
        <mxCell id="YoKq40f7h98XqhHqaOgo-19" value="&lt;font style=&quot;font-size: 14px;&quot; face=&quot;標楷體&quot;&gt;第&lt;/font&gt;&lt;div&gt;&lt;font style=&quot;font-size: 14px;&quot; face=&quot;標楷體&quot;&gt;二&lt;/font&gt;&lt;/div&gt;&lt;div&gt;&lt;font style=&quot;font-size: 14px;&quot; face=&quot;標楷體&quot;&gt;|&lt;/font&gt;&lt;/div&gt;&lt;div&gt;&lt;font style=&quot;font-size: 14px;&quot; face=&quot;標楷體&quot;&gt;九&lt;/font&gt;&lt;/div&gt;&lt;div&gt;&lt;span style=&quot;font-family: 標楷體; background-color: transparent; color: light-dark(rgb(0, 0, 0), rgb(255, 255, 255));&quot;&gt;&lt;font style=&quot;font-size: 14px;&quot;&gt;週&lt;/font&gt;&lt;/span&gt;&lt;/div&gt;" style="text;html=1;align=center;verticalAlign=middle;whiteSpace=wrap;rounded=0;fontFamily=Comic Sans MS;" parent="1" vertex="1">
          <mxGeometry x="248" y="413" width="40" height="90" as="geometry" />
        </mxCell>
        <mxCell id="YoKq40f7h98XqhHqaOgo-20" value="&lt;font style=&quot;font-size: 14px;&quot; face=&quot;標楷體&quot;&gt;第&lt;/font&gt;&lt;div&gt;&lt;font style=&quot;font-size: 14px;&quot; face=&quot;標楷體&quot;&gt;十&lt;/font&gt;&lt;/div&gt;&lt;div&gt;&lt;span style=&quot;font-family: 標楷體; background-color: transparent; color: light-dark(rgb(0, 0, 0), rgb(255, 255, 255));&quot;&gt;&lt;font style=&quot;font-size: 14px;&quot;&gt;週&lt;/font&gt;&lt;/span&gt;&lt;/div&gt;" style="text;html=1;align=center;verticalAlign=middle;whiteSpace=wrap;rounded=0;fontFamily=Comic Sans MS;" parent="1" vertex="1">
          <mxGeometry x="248" y="521" width="40" height="90" as="geometry" />
        </mxCell>
        <mxCell id="YoKq40f7h98XqhHqaOgo-21" value="&lt;font style=&quot;font-size: 14px;&quot; face=&quot;標楷體&quot;&gt;資&lt;/font&gt;&lt;div&gt;&lt;font style=&quot;font-size: 14px;&quot; face=&quot;標楷體&quot;&gt;料&lt;/font&gt;&lt;/div&gt;&lt;div&gt;&lt;font style=&quot;font-size: 14px;&quot; face=&quot;標楷體&quot;&gt;分&lt;/font&gt;&lt;/div&gt;&lt;div&gt;&lt;font style=&quot;font-size: 14px;&quot; face=&quot;標楷體&quot;&gt;析&lt;/font&gt;&lt;/div&gt;&lt;div&gt;&lt;font style=&quot;font-size: 14px;&quot; face=&quot;標楷體&quot;&gt;期&lt;/font&gt;&lt;/div&gt;" style="text;html=1;align=center;verticalAlign=middle;whiteSpace=wrap;rounded=0;fontFamily=Comic Sans MS;" parent="1" vertex="1">
          <mxGeometry x="248" y="593.5" width="40" height="90" as="geometry" />
        </mxCell>
        <mxCell id="YoKq40f7h98XqhHqaOgo-22" value="" style="shape=curlyBracket;whiteSpace=wrap;html=1;rounded=1;labelPosition=left;verticalLabelPosition=middle;align=right;verticalAlign=middle;" parent="1" vertex="1">
          <mxGeometry x="287" y="553" width="20" height="33" as="geometry" />
        </mxCell>
        <mxCell id="YoKq40f7h98XqhHqaOgo-23" value="" style="shape=curlyBracket;whiteSpace=wrap;html=1;rounded=1;labelPosition=left;verticalLabelPosition=middle;align=right;verticalAlign=middle;" parent="1" vertex="1">
          <mxGeometry x="288" y="420" width="20" height="90" as="geometry" />
        </mxCell>
        <mxCell id="YoKq40f7h98XqhHqaOgo-24" value="" style="shape=curlyBracket;whiteSpace=wrap;html=1;rounded=1;labelPosition=left;verticalLabelPosition=middle;align=right;verticalAlign=middle;" parent="1" vertex="1">
          <mxGeometry x="287" y="320" width="20" height="60" as="geometry" />
        </mxCell>
        <mxCell id="YoKq40f7h98XqhHqaOgo-25" value="&lt;font style=&quot;font-size: 14px;&quot; face=&quot;標楷體&quot;&gt;實&lt;/font&gt;&lt;div&gt;&lt;font style=&quot;font-size: 14px;&quot; face=&quot;標楷體&quot;&gt;驗&lt;/font&gt;&lt;/div&gt;&lt;div&gt;&lt;font style=&quot;font-size: 14px;&quot; face=&quot;標楷體&quot;&gt;準&lt;/font&gt;&lt;/div&gt;&lt;div&gt;&lt;font style=&quot;font-size: 14px;&quot; face=&quot;標楷體&quot;&gt;備&lt;/font&gt;&lt;/div&gt;&lt;div&gt;&lt;font style=&quot;font-size: 14px;&quot; face=&quot;標楷體&quot;&gt;前&lt;/font&gt;&lt;/div&gt;&lt;div&gt;&lt;font style=&quot;font-size: 14px;&quot; face=&quot;標楷體&quot;&gt;置&lt;/font&gt;&lt;/div&gt;&lt;div&gt;&lt;font style=&quot;font-size: 14px;&quot; face=&quot;標楷體&quot;&gt;期&lt;/font&gt;&lt;/div&gt;" style="text;html=1;align=center;verticalAlign=middle;whiteSpace=wrap;rounded=0;fontFamily=Comic Sans MS;" parent="1" vertex="1">
          <mxGeometry x="248" y="115" width="40" height="90" as="geometry" />
        </mxCell>
        <mxCell id="YoKq40f7h98XqhHqaOgo-27" value="" style="shape=curlyBracket;whiteSpace=wrap;html=1;rounded=1;flipH=1;labelPosition=right;verticalLabelPosition=middle;align=left;verticalAlign=middle;" parent="1" vertex="1">
          <mxGeometry x="760" y="100" width="20" height="120" as="geometry" />
        </mxCell>
        <mxCell id="YoKq40f7h98XqhHqaOgo-28" value="" style="shape=curlyBracket;whiteSpace=wrap;html=1;rounded=1;flipH=1;labelPosition=right;verticalLabelPosition=middle;align=left;verticalAlign=middle;" parent="1" vertex="1">
          <mxGeometry x="761" y="270" width="20" height="300" as="geometry" />
        </mxCell>
        <mxCell id="YoKq40f7h98XqhHqaOgo-29" value="" style="shape=curlyBracket;whiteSpace=wrap;html=1;rounded=1;flipH=1;labelPosition=right;verticalLabelPosition=middle;align=left;verticalAlign=middle;" parent="1" vertex="1">
          <mxGeometry x="761" y="606" width="20" height="64" as="geometry" />
        </mxCell>
        <mxCell id="YoKq40f7h98XqhHqaOgo-32" value="" style="endArrow=classic;html=1;rounded=0;entryX=0.5;entryY=0;entryDx=0;entryDy=0;" parent="1" target="YoKq40f7h98XqhHqaOgo-10" edge="1">
          <mxGeometry width="50" height="50" relative="1" as="geometry">
            <mxPoint x="646" y="390" as="sourcePoint" />
            <mxPoint x="530" y="402" as="targetPoint" />
          </mxGeometry>
        </mxCell>
        <mxCell id="YoKq40f7h98XqhHqaOgo-33" value="&lt;font face=&quot;標楷體&quot;&gt;&lt;span style=&quot;font-size: 14px;&quot;&gt;實&lt;/span&gt;&lt;/font&gt;&lt;div&gt;&lt;font face=&quot;標楷體&quot;&gt;&lt;span style=&quot;font-size: 14px;&quot;&gt;驗&lt;/span&gt;&lt;/font&gt;&lt;/div&gt;&lt;div&gt;&lt;font face=&quot;標楷體&quot;&gt;&lt;span style=&quot;font-size: 14px;&quot;&gt;完&lt;/span&gt;&lt;/font&gt;&lt;/div&gt;&lt;div&gt;&lt;font face=&quot;標楷體&quot;&gt;&lt;span style=&quot;font-size: 14px;&quot;&gt;成&lt;/span&gt;&lt;/font&gt;&lt;/div&gt;&lt;div&gt;&lt;font face=&quot;標楷體&quot;&gt;&lt;span style=&quot;font-size: 14px;&quot;&gt;後&lt;/span&gt;&lt;/font&gt;&lt;/div&gt;" style="text;html=1;align=center;verticalAlign=middle;whiteSpace=wrap;rounded=0;fontFamily=Comic Sans MS;" parent="1" vertex="1">
          <mxGeometry x="781" y="590" width="40" height="90" as="geometry" />
        </mxCell>
        <mxCell id="YoKq40f7h98XqhHqaOgo-34" value="&lt;font face=&quot;標楷體&quot;&gt;&lt;span style=&quot;font-size: 14px;&quot;&gt;正&lt;/span&gt;&lt;/font&gt;&lt;div&gt;&lt;font face=&quot;標楷體&quot;&gt;&lt;span style=&quot;font-size: 14px;&quot;&gt;式&lt;/span&gt;&lt;/font&gt;&lt;/div&gt;&lt;div&gt;&lt;font face=&quot;標楷體&quot;&gt;&lt;span style=&quot;font-size: 14px;&quot;&gt;實&lt;/span&gt;&lt;/font&gt;&lt;/div&gt;&lt;div&gt;&lt;font face=&quot;標楷體&quot;&gt;&lt;span style=&quot;font-size: 14px;&quot;&gt;驗&lt;/span&gt;&lt;/font&gt;&lt;/div&gt;&lt;div&gt;&lt;font face=&quot;標楷體&quot;&gt;&lt;span style=&quot;font-size: 14px;&quot;&gt;期&lt;/span&gt;&lt;/font&gt;&lt;/div&gt;" style="text;html=1;align=center;verticalAlign=middle;whiteSpace=wrap;rounded=0;fontFamily=Comic Sans MS;" parent="1" vertex="1">
          <mxGeometry x="781" y="360" width="40" height="90" as="geometry" />
        </mxCell>
        <mxCell id="YoKq40f7h98XqhHqaOgo-35" value="&lt;font face=&quot;標楷體&quot;&gt;&lt;span style=&quot;font-size: 14px;&quot;&gt;導&lt;/span&gt;&lt;/font&gt;&lt;div&gt;&lt;font face=&quot;標楷體&quot;&gt;&lt;span style=&quot;font-size: 14px;&quot;&gt;入&lt;/span&gt;&lt;/font&gt;&lt;/div&gt;&lt;div&gt;&lt;font face=&quot;標楷體&quot;&gt;&lt;span style=&quot;font-size: 14px;&quot;&gt;系&lt;/span&gt;&lt;/font&gt;&lt;/div&gt;&lt;div&gt;&lt;font face=&quot;標楷體&quot;&gt;&lt;span style=&quot;font-size: 14px;&quot;&gt;統&lt;/span&gt;&lt;/font&gt;&lt;/div&gt;&lt;div&gt;&lt;font face=&quot;標楷體&quot;&gt;&lt;span style=&quot;font-size: 14px;&quot;&gt;前&lt;/span&gt;&lt;/font&gt;&lt;/div&gt;" style="text;html=1;align=center;verticalAlign=middle;whiteSpace=wrap;rounded=0;fontFamily=Comic Sans MS;" parent="1" vertex="1">
          <mxGeometry x="780" y="115" width="40" height="90" as="geometry" />
        </mxCell>
        <mxCell id="ntevszBLm_33q98t6PgG-1" value="" style="endArrow=classic;html=1;rounded=0;entryX=0.5;entryY=0;entryDx=0;entryDy=0;" parent="1" edge="1">
          <mxGeometry width="50" height="50" relative="1" as="geometry">
            <mxPoint x="413" y="390" as="sourcePoint" />
            <mxPoint x="413" y="412" as="targetPoint" />
          </mxGeometry>
        </mxCell>
        <mxCell id="u6qo_X1T1Dqz0o0PN9vX-2" value="&lt;b&gt;&lt;font style=&quot;font-size: 16px;&quot; face=&quot;標楷體&quot;&gt;透過&lt;/font&gt;&lt;span style=&quot;font-size: 16px;&quot;&gt;&lt;span style=&quot;font-family: &amp;quot;Times New Roman&amp;quot;;&quot;&gt;&amp;nbsp;AI&amp;nbsp;&lt;/span&gt;&lt;font face=&quot;標楷體&quot;&gt;對話&lt;/font&gt;&lt;/span&gt;&lt;/b&gt;&lt;div&gt;&lt;span style=&quot;font-size: 16px;&quot;&gt;&lt;font face=&quot;標楷體&quot;&gt;進行英語學習任務&lt;/font&gt;&lt;/span&gt;&lt;br&gt;&lt;font style=&quot;font-size: 16px;&quot; face=&quot;標楷體&quot;&gt;(20分鐘/天，1天/週)&lt;/font&gt;&lt;/div&gt;" style="whiteSpace=wrap;html=1;shadow=1;fontSize=18;" parent="1" vertex="1">
          <mxGeometry x="321" y="470" width="209" height="70" as="geometry" />
        </mxCell>
        <mxCell id="u6qo_X1T1Dqz0o0PN9vX-3" value="&lt;b&gt;&lt;font style=&quot;font-size: 16px;&quot; face=&quot;標楷體&quot;&gt;透過&lt;/font&gt;&lt;font face=&quot;標楷體&quot;&gt;&lt;span style=&quot;font-size: 16px;&quot;&gt;教師講解&lt;/span&gt;&lt;/font&gt;&lt;/b&gt;&lt;div&gt;&lt;font face=&quot;標楷體&quot;&gt;&lt;span style=&quot;font-size: 16px;&quot;&gt;進行英語學習任務&lt;/span&gt;&lt;/font&gt;&lt;br style=&quot;font-size: 16px;&quot;&gt;&lt;font style=&quot;font-size: 16px;&quot; face=&quot;標楷體&quot;&gt;(20分鐘/天，1天/週)&lt;/font&gt;&lt;/div&gt;" style="whiteSpace=wrap;html=1;shadow=1;fontSize=18;" parent="1" vertex="1">
          <mxGeometry x="541" y="470" width="209" height="70" as="geometry" />
        </mxCell>
      </root>
    </mxGraphModel>
  </diagram>
</mxfile>
